<svg width="16" height="16" viewBox="0 0 16 16" fill="none" xmlns="http://www.w3.org/2000/svg">
<path d="M7.57196 11.0403C7.08636 11.0403 6.65081 10.9182 6.26533 10.674C5.88486 10.4298 5.58448 10.0781 5.36421 9.61905C5.14393 9.15995 5.03379 8.61783 5.03379 7.99267C5.03379 7.36752 5.14643 6.82784 5.37171 6.37363C5.597 5.91453 5.89987 5.56532 6.28035 5.32601C6.66583 5.08181 7.09637 4.95971 7.57196 4.95971C8.02753 4.95971 8.38798 5.06227 8.65332 5.2674C8.91865 5.46764 9.1189 5.69719 9.25407 5.95604H9.32916V5.07692H10.6358V9.17949C10.6458 9.45299 10.7059 9.65324 10.816 9.78022C10.9312 9.9072 11.1039 9.9707 11.3342 9.9707C11.6145 9.9707 11.8598 9.87057 12.0701 9.67033C12.2854 9.47009 12.4506 9.18926 12.5657 8.82784C12.6809 8.46154 12.7384 8.04151 12.7384 7.56777C12.7384 6.69841 12.5382 5.93407 12.1377 5.27473C11.7422 4.61538 11.1865 4.10501 10.4706 3.74359C9.75469 3.38217 8.93367 3.20147 8.00751 3.20147C7.06633 3.20147 6.23529 3.41392 5.51439 3.83883C4.7985 4.25885 4.24531 4.83272 3.85482 5.56044C3.46433 6.28816 3.26658 7.0989 3.26158 7.99267C3.26158 8.96459 3.4368 9.81197 3.78723 10.5348C4.14268 11.2527 4.66834 11.8095 5.36421 12.2051C6.06008 12.6007 6.90363 12.7985 7.89487 12.7985C8.45056 12.7985 8.93617 12.7741 9.35169 12.7253C9.76721 12.6764 10.1952 12.5934 10.6358 12.4762V13.6484C9.79474 13.8828 8.89862 14 7.94743 14C6.7209 14 5.65957 13.7558 4.76345 13.2674C3.87234 12.7839 3.18899 12.0904 2.71339 11.1868C2.2378 10.2833 2 9.21856 2 7.99267C2 6.84982 2.25532 5.82418 2.76596 4.91575C3.2766 4.00244 3.98748 3.28938 4.89862 2.77656C5.81477 2.25885 6.85106 2 8.00751 2C9.16896 2 10.2053 2.23932 11.1164 2.71795C12.0275 3.19658 12.7359 3.85836 13.2416 4.7033C13.7472 5.54335 14 6.4884 14 7.53846C14 8.26618 13.8824 8.89866 13.6471 9.4359C13.4118 9.97314 13.0839 10.3858 12.6633 10.674C12.2478 10.9573 11.7722 11.0989 11.2365 11.0989C10.9111 11.0989 10.6158 11.0501 10.3504 10.9524C10.0901 10.8547 9.87484 10.7179 9.70463 10.5421C9.53942 10.3663 9.4393 10.1661 9.40426 9.94139H9.32916C9.18899 10.2247 8.97872 10.4786 8.69837 10.7033C8.42303 10.928 8.04756 11.0403 7.57196 11.0403ZM6.44556 7.95604C6.44556 8.50794 6.57322 8.95971 6.82854 9.31136C7.08385 9.65812 7.4418 9.83394 7.90238 9.83883C8.36796 9.83394 8.72591 9.66545 8.97622 9.33333C9.22653 9.00122 9.35419 8.54945 9.3592 7.97802C9.35419 7.41636 9.22653 6.97436 8.97622 6.65201C8.73091 6.32967 8.37297 6.16606 7.90238 6.16117C7.44681 6.16606 7.08886 6.33455 6.82854 6.66667C6.57322 6.99878 6.44556 7.42857 6.44556 7.95604Z" fill="#888888"/>
</svg>
